<?xml version="1.0" standalone="no"?>
<!DOCTYPE svg PUBLIC "-//W3C//DTD SVG 20010904//EN"
 "http://www.w3.org/TR/2001/REC-SVG-20010904/DTD/svg10.dtd">
<svg version="1.0" xmlns="http://www.w3.org/2000/svg"
 width="512.000000pt" height="512.000000pt" viewBox="0 0 512.000000 512.000000"
 preserveAspectRatio="xMidYMid meet">

<g transform="translate(0.000000,512.000000) scale(0.100000,-0.100000)"
fill="#000000" stroke="none">
<path d="M0 2560 l0 -2560 2560 0 2560 0 0 2560 0 2560 -2560 0 -2560 0 0
-2560z m2875 1927 c843 -136 1489 -755 1657 -1587 20 -102 23 -142 23 -355 -1
-225 -3 -248 -29 -365 -106 -481 -355 -870 -737 -1157 -367 -274 -772 -407
-1244 -406 -561 1 -1059 215 -1445 620 -120 126 -200 233 -277 371 -279 506
-326 1109 -126 1622 133 342 336 620 616 844 278 223 634 373 992 421 134 17
438 13 570 -8z"/>
<path d="M2375 4333 c-87 -8 -262 -46 -363 -79 -383 -125 -725 -383 -945 -714
-354 -531 -398 -1186 -117 -1750 91 -185 170 -297 305 -439 254 -265 589 -447
961 -521 137 -28 415 -38 561 -21 120 14 270 49 397 93 96 33 306 133 344 164
l22 19 -2 856 -3 856 -324 -370 c-311 -355 -324 -368 -341 -351 -9 11 -127
138 -262 284 -135 146 -262 281 -282 299 l-36 35 0 -383 0 -384 -59 6 c-123
11 -268 112 -327 228 -44 87 -54 162 -54 409 0 326 17 400 116 509 137 151
308 189 482 106 67 -32 91 -52 251 -216 l176 -181 45 49 c25 27 95 107 156
178 325 379 595 694 661 769 l62 71 -27 29 c-45 48 -216 172 -321 231 -188
106 -436 189 -646 214 -83 10 -336 12 -430 4z m212 -458 c169 -27 343 -97 490
-196 72 -49 193 -155 193 -169 0 -14 -302 -350 -315 -350 -6 0 -20 10 -31 21
-64 71 -253 173 -379 204 -103 25 -269 24 -368 -4 -258 -71 -454 -264 -543
-536 -35 -106 -45 -328 -20 -448 51 -248 188 -432 401 -538 119 -59 204 -79
342 -79 198 0 366 55 519 171 l68 52 71 -76 c38 -41 119 -128 179 -192 91 -96
108 -119 99 -133 -22 -36 -194 -156 -303 -211 -197 -101 -352 -141 -575 -148
-177 -6 -284 9 -444 63 -446 149 -762 519 -868 1014 -25 117 -25 390 0 510 87
418 332 745 692 924 124 62 234 100 345 121 102 18 334 18 447 0z"/>
<path d="M3970 2565 c0 -608 3 -1105 8 -1105 18 1 148 200 210 322 132 261
186 489 185 783 -2 325 -74 593 -236 875 -46 80 -152 230 -162 230 -3 0 -5
-497 -5 -1105z"/>
</g>
</svg>
